<svg viewBox="0 0 160 160" width="160" height="160" xmlns="http://www.w3.org/2000/svg"><defs><radialGradient id="Cg5" cx="36%" cy="28%" r="82%"><stop offset="0%" stop-color="#f2da93"></stop><stop offset="50%" stop-color="#c69c3f"></stop><stop offset="100%" stop-color="#7c5713"></stop></radialGradient><radialGradient id="vigC5" cx="50%" cy="42%" r="60%"><stop offset="58%" stop-color="#000" stop-opacity="0"></stop><stop offset="100%" stop-color="#000" stop-opacity="0.44"></stop></radialGradient><clipPath id="bcC5"><circle cx="80" cy="80" r="44"></circle></clipPath><clipPath id="frC5"><path d="M20.0,80 a60.0,60.0 0 1,0 120.0,0 a60.0,60.0 0 1,0 -120.0,0 Z M30.0,80 a50.0,50.0 0 1,0 100.0,0 a50.0,50.0 0 1,0 -100.0,0 Z" clip-rule="evenodd"></path></clipPath><filter id="grC5" x="0" y="0" width="100%" height="100%"><feTurbulence type="fractalNoise" baseFrequency="0.9" numOctaves="2" seed="65" stitchTiles="stitch"></feTurbulence><feColorMatrix type="matrix" values="0 0 0 0 0 0 0 0 0 0 0 0 0 0 0 0 0 0 1 0"></feColorMatrix></filter><filter id="glC5" x="0" y="0" width="100%" height="100%"><feTurbulence type="fractalNoise" baseFrequency="1.15" numOctaves="2" seed="70" stitchTiles="stitch"></feTurbulence><feColorMatrix type="matrix" values="0 0 0 0 0 0 0 0 0 0 0 0 0 0 0 0 0 0 0.75 0"></feColorMatrix></filter><filter id="shC5" x="-35%" y="-35%" width="170%" height="170%"><feDropShadow dx="0" dy="3" stdDeviation="3.2" flood-color="#000" flood-opacity="0.5"></feDropShadow></filter><filter id="glowC5" x="-45%" y="-45%" width="190%" height="190%"><feGaussianBlur stdDeviation="5.5"></feGaussianBlur></filter></defs><circle cx="80" cy="80" r="71" fill="#c69c3f" opacity="0.4" filter="url(#glowC5)"></circle><g transform="translate(80,80) rotate(0)"><polygon points="0,-75 2.8,-60 -2.8,-60" fill="#f2da93" opacity="0.32"></polygon></g><g transform="translate(80,80) rotate(15)"><polygon points="0,-75 2.8,-60 -2.8,-60" fill="#f2da93" opacity="0.6"></polygon></g><g transform="translate(80,80) rotate(30)"><polygon points="0,-75 2.8,-60 -2.8,-60" fill="#f2da93" opacity="0.32"></polygon></g><g transform="translate(80,80) rotate(45)"><polygon points="0,-75 2.8,-60 -2.8,-60" fill="#f2da93" opacity="0.6"></polygon></g><g transform="translate(80,80) rotate(60)"><polygon points="0,-75 2.8,-60 -2.8,-60" fill="#f2da93" opacity="0.32"></polygon></g><g transform="translate(80,80) rotate(75)"><polygon points="0,-75 2.8,-60 -2.8,-60" fill="#f2da93" opacity="0.6"></polygon></g><g transform="translate(80,80) rotate(90)"><polygon points="0,-75 2.8,-60 -2.8,-60" fill="#f2da93" opacity="0.32"></polygon></g><g transform="translate(80,80) rotate(105)"><polygon points="0,-75 2.8,-60 -2.8,-60" fill="#f2da93" opacity="0.6"></polygon></g><g transform="translate(80,80) rotate(120)"><polygon points="0,-75 2.8,-60 -2.8,-60" fill="#f2da93" opacity="0.32"></polygon></g><g transform="translate(80,80) rotate(135)"><polygon points="0,-75 2.8,-60 -2.8,-60" fill="#f2da93" opacity="0.6"></polygon></g><g transform="translate(80,80) rotate(150)"><polygon points="0,-75 2.8,-60 -2.8,-60" fill="#f2da93" opacity="0.32"></polygon></g><g transform="translate(80,80) rotate(165)"><polygon points="0,-75 2.8,-60 -2.8,-60" fill="#f2da93" opacity="0.6"></polygon></g><g transform="translate(80,80) rotate(180)"><polygon points="0,-75 2.8,-60 -2.8,-60" fill="#f2da93" opacity="0.32"></polygon></g><g transform="translate(80,80) rotate(195)"><polygon points="0,-75 2.8,-60 -2.8,-60" fill="#f2da93" opacity="0.6"></polygon></g><g transform="translate(80,80) rotate(210)"><polygon points="0,-75 2.8,-60 -2.8,-60" fill="#f2da93" opacity="0.32"></polygon></g><g transform="translate(80,80) rotate(225)"><polygon points="0,-75 2.8,-60 -2.8,-60" fill="#f2da93" opacity="0.6"></polygon></g><g transform="translate(80,80) rotate(240)"><polygon points="0,-75 2.8,-60 -2.8,-60" fill="#f2da93" opacity="0.32"></polygon></g><g transform="translate(80,80) rotate(255)"><polygon points="0,-75 2.8,-60 -2.8,-60" fill="#f2da93" opacity="0.6"></polygon></g><g transform="translate(80,80) rotate(270)"><polygon points="0,-75 2.8,-60 -2.8,-60" fill="#f2da93" opacity="0.32"></polygon></g><g transform="translate(80,80) rotate(285)"><polygon points="0,-75 2.8,-60 -2.8,-60" fill="#f2da93" opacity="0.6"></polygon></g><g transform="translate(80,80) rotate(300)"><polygon points="0,-75 2.8,-60 -2.8,-60" fill="#f2da93" opacity="0.32"></polygon></g><g transform="translate(80,80) rotate(315)"><polygon points="0,-75 2.8,-60 -2.8,-60" fill="#f2da93" opacity="0.6"></polygon></g><g transform="translate(80,80) rotate(330)"><polygon points="0,-75 2.8,-60 -2.8,-60" fill="#f2da93" opacity="0.32"></polygon></g><g transform="translate(80,80) rotate(345)"><polygon points="0,-75 2.8,-60 -2.8,-60" fill="#f2da93" opacity="0.6"></polygon></g><g><path d="M60.0,36.5 Q70.0,34.7 69.0,20.9 Q75.2,30.6 80.0,13.5 Q84.8,30.6 91.0,20.9 Q90.0,34.7 100.0,36.5 Z" fill="url(#Cg5)" stroke="#7c5713" stroke-width="1.1" stroke-linejoin="round"></path><path d="M82.0,35.9 Q88.0,30.1 91.0,20.9 Q86.4,30.6 80.0,13.5 L81.2,35.9 Z" fill="#000" opacity="0.13"></path><path d="M70.0,21.8 Q76.0,30.1 79.4,14.9" fill="none" stroke="#f2da93" stroke-width="1" opacity="0.55"></path><rect x="59.0" y="35.6" width="42.0" height="8.3" rx="2.5" fill="url(#Cg5)" stroke="#7c5713" stroke-width="1.1"></rect><rect x="59.0" y="42.1" width="42.0" height="1.8" fill="#7c5713" opacity="0.5"></rect><rect x="59.0" y="36.5" width="42.0" height="1.2" fill="#f2da93" opacity="0.5"></rect><circle cx="80.0" cy="40.0" r="2.3" fill="#a83f2b" stroke="#7c5713" stroke-width="0.7"></circle><circle cx="79.2" cy="39.3" r="0.8" fill="#fff" opacity="0.6"></circle><circle cx="68.8" cy="40.2" r="1.7" fill="#2f7a4d" stroke="#7c5713" stroke-width="0.5"></circle><circle cx="91.2" cy="40.2" r="1.7" fill="#2f7a4d" stroke="#7c5713" stroke-width="0.5"></circle><circle cx="60.0" cy="36.5" r="2.2" fill="#f2da93" stroke="#7c5713" stroke-width="0.6"></circle><circle cx="59.3" cy="35.8" r="0.8" fill="#fff" opacity="0.7"></circle><circle cx="100.0" cy="36.5" r="2.2" fill="#f2da93" stroke="#7c5713" stroke-width="0.6"></circle><circle cx="99.3" cy="35.8" r="0.8" fill="#fff" opacity="0.7"></circle><circle cx="69.0" cy="20.9" r="2.5" fill="#f2da93" stroke="#7c5713" stroke-width="0.6"></circle><circle cx="68.2" cy="20.1" r="0.9" fill="#fff" opacity="0.7"></circle><circle cx="91.0" cy="20.9" r="2.5" fill="#f2da93" stroke="#7c5713" stroke-width="0.6"></circle><circle cx="90.2" cy="20.1" r="0.9" fill="#fff" opacity="0.7"></circle><circle cx="80.0" cy="13.5" r="2.8" fill="url(#Cg5)" stroke="#7c5713" stroke-width="0.8"></circle><rect x="79.1" y="5.7" width="1.8" height="7.4" rx="0.6" fill="url(#Cg5)" stroke="#7c5713" stroke-width="0.4"></rect><rect x="77.7" y="8.5" width="4.6" height="1.8" rx="0.6" fill="url(#Cg5)" stroke="#7c5713" stroke-width="0.4"></rect></g><g transform="translate(80,80) rotate(32)"><polygon points="0,44.6 2.6,36.0 -2.6,36.0" fill="#7c5713"></polygon><rect x="-2" y="-36.0" width="4" height="72.0" fill="url(#Cg5)" stroke="#7c5713" stroke-width="0.7"></rect><line x1="-0.7" y1="-36.0" x2="-0.7" y2="32.4" stroke="#f2da93" stroke-width="0.6" opacity="0.6"></line><polygon points="0,-36.0 7,-72.0 0,-61.9 -7,-72.0" fill="url(#Cg5)" stroke="#7c5713" stroke-width="0.8" stroke-linejoin="round"></polygon><polygon points="0,-36.0 7,-72.0 0,-61.9" fill="#000" opacity="0.16"></polygon><line x1="0" y1="-36.0" x2="0" y2="-67.0" stroke="#7c5713" stroke-width="0.7" opacity="0.55"></line><line x1="0" y1="-37.4" x2="-6.4" y2="-69.8" stroke="#f2da93" stroke-width="0.7" opacity="0.55"></line></g><g transform="translate(80,80) rotate(-32)"><polygon points="0,44.6 2.6,36.0 -2.6,36.0" fill="#7c5713"></polygon><rect x="-2" y="-36.0" width="4" height="72.0" fill="url(#Cg5)" stroke="#7c5713" stroke-width="0.7"></rect><line x1="-0.7" y1="-36.0" x2="-0.7" y2="32.4" stroke="#f2da93" stroke-width="0.6" opacity="0.6"></line><polygon points="0,-36.0 7,-72.0 0,-61.9 -7,-72.0" fill="url(#Cg5)" stroke="#7c5713" stroke-width="0.8" stroke-linejoin="round"></polygon><polygon points="0,-36.0 7,-72.0 0,-61.9" fill="#000" opacity="0.16"></polygon><line x1="0" y1="-36.0" x2="0" y2="-67.0" stroke="#7c5713" stroke-width="0.7" opacity="0.55"></line><line x1="0" y1="-37.4" x2="-6.4" y2="-69.8" stroke="#f2da93" stroke-width="0.7" opacity="0.55"></line></g><g transform="rotate(14.0 95.0 140.2)"><ellipse cx="95.0" cy="140.2" rx="6.7" ry="2.9" fill="#c69c3f" stroke="#7c5713" stroke-width="0.6"></ellipse><ellipse cx="94.0" cy="139.5" rx="3.1" ry="1.1" fill="#f2da93" opacity="0.32"></ellipse><line x1="89.4" y1="140.2" x2="100.6" y2="140.2" stroke="#7c5713" stroke-width="0.5" opacity="0.55"></line></g><g transform="rotate(29.0 110.1 134.2)"><ellipse cx="110.1" cy="134.2" rx="6.7" ry="2.9" fill="#c69c3f" stroke="#7c5713" stroke-width="0.6"></ellipse><ellipse cx="109.1" cy="133.5" rx="3.1" ry="1.1" fill="#f2da93" opacity="0.32"></ellipse><line x1="104.5" y1="134.2" x2="115.7" y2="134.2" stroke="#7c5713" stroke-width="0.5" opacity="0.55"></line></g><g transform="rotate(44.0 123.1 124.6)"><ellipse cx="123.1" cy="124.6" rx="6.7" ry="2.9" fill="#c69c3f" stroke="#7c5713" stroke-width="0.6"></ellipse><ellipse cx="122.1" cy="123.9" rx="3.1" ry="1.1" fill="#f2da93" opacity="0.32"></ellipse><line x1="117.5" y1="124.6" x2="128.7" y2="124.6" stroke="#7c5713" stroke-width="0.5" opacity="0.55"></line></g><g transform="rotate(59.0 133.1 111.9)"><ellipse cx="133.1" cy="111.9" rx="6.7" ry="2.9" fill="#c69c3f" stroke="#7c5713" stroke-width="0.6"></ellipse><ellipse cx="132.1" cy="111.2" rx="3.1" ry="1.1" fill="#f2da93" opacity="0.32"></ellipse><line x1="127.5" y1="111.9" x2="138.7" y2="111.9" stroke="#7c5713" stroke-width="0.5" opacity="0.55"></line></g><g transform="rotate(74.0 139.6 97.1)"><ellipse cx="139.6" cy="97.1" rx="6.7" ry="2.9" fill="#c69c3f" stroke="#7c5713" stroke-width="0.6"></ellipse><ellipse cx="138.6" cy="96.4" rx="3.1" ry="1.1" fill="#f2da93" opacity="0.32"></ellipse><line x1="134.0" y1="97.1" x2="145.2" y2="97.1" stroke="#7c5713" stroke-width="0.5" opacity="0.55"></line></g><g transform="rotate(89.0 142.0 81.1)"><ellipse cx="142.0" cy="81.1" rx="6.7" ry="2.9" fill="#c69c3f" stroke="#7c5713" stroke-width="0.6"></ellipse><ellipse cx="141.0" cy="80.4" rx="3.1" ry="1.1" fill="#f2da93" opacity="0.32"></ellipse><line x1="136.4" y1="81.1" x2="147.6" y2="81.1" stroke="#7c5713" stroke-width="0.5" opacity="0.55"></line></g><g transform="rotate(-14.0 65.0 140.2)"><ellipse cx="65.0" cy="140.2" rx="6.7" ry="2.9" fill="#c69c3f" stroke="#7c5713" stroke-width="0.6"></ellipse><ellipse cx="64.0" cy="139.5" rx="3.1" ry="1.1" fill="#f2da93" opacity="0.32"></ellipse><line x1="59.4" y1="140.2" x2="70.6" y2="140.2" stroke="#7c5713" stroke-width="0.5" opacity="0.55"></line></g><g transform="rotate(-29.0 49.9 134.2)"><ellipse cx="49.9" cy="134.2" rx="6.7" ry="2.9" fill="#c69c3f" stroke="#7c5713" stroke-width="0.6"></ellipse><ellipse cx="48.9" cy="133.5" rx="3.1" ry="1.1" fill="#f2da93" opacity="0.32"></ellipse><line x1="44.3" y1="134.2" x2="55.5" y2="134.2" stroke="#7c5713" stroke-width="0.5" opacity="0.55"></line></g><g transform="rotate(-44.0 36.9 124.6)"><ellipse cx="36.9" cy="124.6" rx="6.7" ry="2.9" fill="#c69c3f" stroke="#7c5713" stroke-width="0.6"></ellipse><ellipse cx="35.9" cy="123.9" rx="3.1" ry="1.1" fill="#f2da93" opacity="0.32"></ellipse><line x1="31.3" y1="124.6" x2="42.5" y2="124.6" stroke="#7c5713" stroke-width="0.5" opacity="0.55"></line></g><g transform="rotate(-59.0 26.9 111.9)"><ellipse cx="26.9" cy="111.9" rx="6.7" ry="2.9" fill="#c69c3f" stroke="#7c5713" stroke-width="0.6"></ellipse><ellipse cx="25.9" cy="111.2" rx="3.1" ry="1.1" fill="#f2da93" opacity="0.32"></ellipse><line x1="21.3" y1="111.9" x2="32.5" y2="111.9" stroke="#7c5713" stroke-width="0.5" opacity="0.55"></line></g><g transform="rotate(-74.0 20.4 97.1)"><ellipse cx="20.4" cy="97.1" rx="6.7" ry="2.9" fill="#c69c3f" stroke="#7c5713" stroke-width="0.6"></ellipse><ellipse cx="19.4" cy="96.4" rx="3.1" ry="1.1" fill="#f2da93" opacity="0.32"></ellipse><line x1="14.8" y1="97.1" x2="26.0" y2="97.1" stroke="#7c5713" stroke-width="0.5" opacity="0.55"></line></g><g transform="rotate(-89.0 18.0 81.1)"><ellipse cx="18.0" cy="81.1" rx="6.7" ry="2.9" fill="#c69c3f" stroke="#7c5713" stroke-width="0.6"></ellipse><ellipse cx="17.0" cy="80.4" rx="3.1" ry="1.1" fill="#f2da93" opacity="0.32"></ellipse><line x1="12.4" y1="81.1" x2="23.6" y2="81.1" stroke="#7c5713" stroke-width="0.5" opacity="0.55"></line></g><circle cx="80" cy="80" r="57" fill="#14100b" filter="url(#shC5)"></circle><circle cx="80" cy="80" r="57" fill="none" stroke="url(#Cg5)" stroke-width="7"></circle><g clip-path="url(#frC5)"><rect x="20.0" y="20.0" width="120.0" height="120.0" fill="#000" filter="url(#grC5)" style="mix-blend-mode:multiply" opacity="0.16"></rect><rect x="20.0" y="20.0" width="120.0" height="120.0" fill="#fff" filter="url(#glC5)" style="mix-blend-mode:soft-light" opacity="0.24"></rect></g><circle cx="80" cy="80" r="54.4" fill="none" stroke="#4a340c" stroke-width="0.9" stroke-dasharray="1.3 2.5" opacity="0.6"></circle><circle cx="80" cy="80" r="47.6" fill="none" stroke="#4a340c" stroke-width="0.9" stroke-dasharray="1.3 2.5" opacity="0.55"></circle><circle cx="80" cy="80" r="53.9" fill="none" stroke="#5a3f0e" stroke-width="1" opacity="0.55"></circle><circle cx="80" cy="80" r="60.1" fill="none" stroke="#f2da93" stroke-width="0.8" opacity="0.45"></circle><path d="M42.4,51.5 A57,57 0 0 1 86.8,39.0" fill="none" stroke="#fff4d8" stroke-width="2.4" stroke-linecap="round" opacity="0.42"></path><circle cx="80" cy="80" r="50.5" fill="none" stroke="#7c5713" stroke-width="1.6" stroke-dasharray="2.2 3.4"></circle><circle cx="80.0" cy="29.5" r="2.2" fill="#f2da93" stroke="#5a3f0e" stroke-width="0.4"></circle><circle cx="79.4" cy="28.9" r="0.8" fill="#fff" opacity="0.6"></circle><circle cx="95.6" cy="32.0" r="2.2" fill="#f2da93" stroke="#5a3f0e" stroke-width="0.4"></circle><circle cx="95.0" cy="31.4" r="0.8" fill="#fff" opacity="0.6"></circle><circle cx="109.7" cy="39.1" r="2.2" fill="#f2da93" stroke="#5a3f0e" stroke-width="0.4"></circle><circle cx="109.1" cy="38.5" r="0.8" fill="#fff" opacity="0.6"></circle><circle cx="120.9" cy="50.3" r="2.2" fill="#f2da93" stroke="#5a3f0e" stroke-width="0.4"></circle><circle cx="120.3" cy="49.7" r="0.8" fill="#fff" opacity="0.6"></circle><circle cx="128.0" cy="64.4" r="2.2" fill="#f2da93" stroke="#5a3f0e" stroke-width="0.4"></circle><circle cx="127.4" cy="63.8" r="0.8" fill="#fff" opacity="0.6"></circle><circle cx="130.5" cy="80.0" r="2.2" fill="#f2da93" stroke="#5a3f0e" stroke-width="0.4"></circle><circle cx="129.9" cy="79.4" r="0.8" fill="#fff" opacity="0.6"></circle><circle cx="128.0" cy="95.6" r="2.2" fill="#f2da93" stroke="#5a3f0e" stroke-width="0.4"></circle><circle cx="127.4" cy="95.0" r="0.8" fill="#fff" opacity="0.6"></circle><circle cx="120.9" cy="109.7" r="2.2" fill="#f2da93" stroke="#5a3f0e" stroke-width="0.4"></circle><circle cx="120.3" cy="109.1" r="0.8" fill="#fff" opacity="0.6"></circle><circle cx="109.7" cy="120.9" r="2.2" fill="#f2da93" stroke="#5a3f0e" stroke-width="0.4"></circle><circle cx="109.1" cy="120.3" r="0.8" fill="#fff" opacity="0.6"></circle><circle cx="95.6" cy="128.0" r="2.2" fill="#f2da93" stroke="#5a3f0e" stroke-width="0.4"></circle><circle cx="95.0" cy="127.4" r="0.8" fill="#fff" opacity="0.6"></circle><circle cx="80.0" cy="130.5" r="2.2" fill="#f2da93" stroke="#5a3f0e" stroke-width="0.4"></circle><circle cx="79.4" cy="129.9" r="0.8" fill="#fff" opacity="0.6"></circle><circle cx="64.4" cy="128.0" r="2.2" fill="#f2da93" stroke="#5a3f0e" stroke-width="0.4"></circle><circle cx="63.8" cy="127.4" r="0.8" fill="#fff" opacity="0.6"></circle><circle cx="50.3" cy="120.9" r="2.2" fill="#f2da93" stroke="#5a3f0e" stroke-width="0.4"></circle><circle cx="49.7" cy="120.3" r="0.8" fill="#fff" opacity="0.6"></circle><circle cx="39.1" cy="109.7" r="2.2" fill="#f2da93" stroke="#5a3f0e" stroke-width="0.4"></circle><circle cx="38.5" cy="109.1" r="0.8" fill="#fff" opacity="0.6"></circle><circle cx="32.0" cy="95.6" r="2.2" fill="#f2da93" stroke="#5a3f0e" stroke-width="0.4"></circle><circle cx="31.4" cy="95.0" r="0.8" fill="#fff" opacity="0.6"></circle><circle cx="29.5" cy="80.0" r="2.2" fill="#f2da93" stroke="#5a3f0e" stroke-width="0.4"></circle><circle cx="28.9" cy="79.4" r="0.8" fill="#fff" opacity="0.6"></circle><circle cx="32.0" cy="64.4" r="2.2" fill="#f2da93" stroke="#5a3f0e" stroke-width="0.4"></circle><circle cx="31.4" cy="63.8" r="0.8" fill="#fff" opacity="0.6"></circle><circle cx="39.1" cy="50.3" r="2.2" fill="#f2da93" stroke="#5a3f0e" stroke-width="0.4"></circle><circle cx="38.5" cy="49.7" r="0.8" fill="#fff" opacity="0.6"></circle><circle cx="50.3" cy="39.1" r="2.2" fill="#f2da93" stroke="#5a3f0e" stroke-width="0.4"></circle><circle cx="49.7" cy="38.5" r="0.8" fill="#fff" opacity="0.6"></circle><circle cx="64.4" cy="32.0" r="2.2" fill="#f2da93" stroke="#5a3f0e" stroke-width="0.4"></circle><circle cx="63.8" cy="31.4" r="0.8" fill="#fff" opacity="0.6"></circle><circle cx="80" cy="80" r="44" fill="#e6d9b6"></circle><path d="M80,80 L73.1,36.5 A44,44 0 0 1 86.9,36.5 Z" fill="#181410"></path><path d="M80,80 L100.0,40.8 A44,44 0 0 1 111.1,48.9 Z" fill="#181410"></path><path d="M80,80 L119.2,60.0 A44,44 0 0 1 123.5,73.1 Z" fill="#181410"></path><path d="M80,80 L123.5,86.9 A44,44 0 0 1 119.2,100.0 Z" fill="#181410"></path><path d="M80,80 L111.1,111.1 A44,44 0 0 1 100.0,119.2 Z" fill="#181410"></path><path d="M80,80 L86.9,123.5 A44,44 0 0 1 73.1,123.5 Z" fill="#181410"></path><path d="M80,80 L60.0,119.2 A44,44 0 0 1 48.9,111.1 Z" fill="#181410"></path><path d="M80,80 L40.8,100.0 A44,44 0 0 1 36.5,86.9 Z" fill="#181410"></path><path d="M80,80 L36.5,73.1 A44,44 0 0 1 40.8,60.0 Z" fill="#181410"></path><path d="M80,80 L48.9,48.9 A44,44 0 0 1 60.0,40.8 Z" fill="#181410"></path><g clip-path="url(#bcC5)"><rect x="36" y="36" width="88" height="88" fill="#000" filter="url(#grC5)" style="mix-blend-mode:multiply" opacity="0.3"></rect><rect x="36" y="36" width="88" height="88" fill="#fff" filter="url(#glC5)" style="mix-blend-mode:soft-light" opacity="0.36"></rect></g><path d="M73.4,38.0 A42.5,42.5 0 0 1 86.6,38.0" fill="none" stroke="#a83f2b" stroke-width="2.7"></path><path d="M86.6,38.0 A42.5,42.5 0 0 1 99.3,42.1" fill="none" stroke="#2f7a4d" stroke-width="2.7"></path><path d="M99.3,42.1 A42.5,42.5 0 0 1 110.1,49.9" fill="none" stroke="#a83f2b" stroke-width="2.7"></path><path d="M110.1,49.9 A42.5,42.5 0 0 1 117.9,60.7" fill="none" stroke="#2f7a4d" stroke-width="2.7"></path><path d="M117.9,60.7 A42.5,42.5 0 0 1 122.0,73.4" fill="none" stroke="#a83f2b" stroke-width="2.7"></path><path d="M122.0,73.4 A42.5,42.5 0 0 1 122.0,86.6" fill="none" stroke="#2f7a4d" stroke-width="2.7"></path><path d="M122.0,86.6 A42.5,42.5 0 0 1 117.9,99.3" fill="none" stroke="#a83f2b" stroke-width="2.7"></path><path d="M117.9,99.3 A42.5,42.5 0 0 1 110.1,110.1" fill="none" stroke="#2f7a4d" stroke-width="2.7"></path><path d="M110.1,110.1 A42.5,42.5 0 0 1 99.3,117.9" fill="none" stroke="#a83f2b" stroke-width="2.7"></path><path d="M99.3,117.9 A42.5,42.5 0 0 1 86.6,122.0" fill="none" stroke="#2f7a4d" stroke-width="2.7"></path><path d="M86.6,122.0 A42.5,42.5 0 0 1 73.4,122.0" fill="none" stroke="#a83f2b" stroke-width="2.7"></path><path d="M73.4,122.0 A42.5,42.5 0 0 1 60.7,117.9" fill="none" stroke="#2f7a4d" stroke-width="2.7"></path><path d="M60.7,117.9 A42.5,42.5 0 0 1 49.9,110.1" fill="none" stroke="#a83f2b" stroke-width="2.7"></path><path d="M49.9,110.1 A42.5,42.5 0 0 1 42.1,99.3" fill="none" stroke="#2f7a4d" stroke-width="2.7"></path><path d="M42.1,99.3 A42.5,42.5 0 0 1 38.0,86.6" fill="none" stroke="#a83f2b" stroke-width="2.7"></path><path d="M38.0,86.6 A42.5,42.5 0 0 1 38.0,73.4" fill="none" stroke="#2f7a4d" stroke-width="2.7"></path><path d="M38.0,73.4 A42.5,42.5 0 0 1 42.1,60.7" fill="none" stroke="#a83f2b" stroke-width="2.7"></path><path d="M42.1,60.7 A42.5,42.5 0 0 1 49.9,49.9" fill="none" stroke="#2f7a4d" stroke-width="2.7"></path><path d="M49.9,49.9 A42.5,42.5 0 0 1 60.7,42.1" fill="none" stroke="#a83f2b" stroke-width="2.7"></path><path d="M60.7,42.1 A42.5,42.5 0 0 1 73.4,38.0" fill="none" stroke="#2f7a4d" stroke-width="2.7"></path><path d="M76.3,56.5 A23.76,23.76 0 0 1 83.7,56.5" fill="none" stroke="#a83f2b" stroke-width="2.7"></path><path d="M83.7,56.5 A23.76,23.76 0 0 1 90.8,58.8" fill="none" stroke="#2f7a4d" stroke-width="2.7"></path><path d="M90.8,58.8 A23.76,23.76 0 0 1 96.8,63.2" fill="none" stroke="#a83f2b" stroke-width="2.7"></path><path d="M96.8,63.2 A23.76,23.76 0 0 1 101.2,69.2" fill="none" stroke="#2f7a4d" stroke-width="2.7"></path><path d="M101.2,69.2 A23.76,23.76 0 0 1 103.5,76.3" fill="none" stroke="#a83f2b" stroke-width="2.7"></path><path d="M103.5,76.3 A23.76,23.76 0 0 1 103.5,83.7" fill="none" stroke="#2f7a4d" stroke-width="2.7"></path><path d="M103.5,83.7 A23.76,23.76 0 0 1 101.2,90.8" fill="none" stroke="#a83f2b" stroke-width="2.7"></path><path d="M101.2,90.8 A23.76,23.76 0 0 1 96.8,96.8" fill="none" stroke="#2f7a4d" stroke-width="2.7"></path><path d="M96.8,96.8 A23.76,23.76 0 0 1 90.8,101.2" fill="none" stroke="#a83f2b" stroke-width="2.7"></path><path d="M90.8,101.2 A23.76,23.76 0 0 1 83.7,103.5" fill="none" stroke="#2f7a4d" stroke-width="2.7"></path><path d="M83.7,103.5 A23.76,23.76 0 0 1 76.3,103.5" fill="none" stroke="#a83f2b" stroke-width="2.7"></path><path d="M76.3,103.5 A23.76,23.76 0 0 1 69.2,101.2" fill="none" stroke="#2f7a4d" stroke-width="2.7"></path><path d="M69.2,101.2 A23.76,23.76 0 0 1 63.2,96.8" fill="none" stroke="#a83f2b" stroke-width="2.7"></path><path d="M63.2,96.8 A23.76,23.76 0 0 1 58.8,90.8" fill="none" stroke="#2f7a4d" stroke-width="2.7"></path><path d="M58.8,90.8 A23.76,23.76 0 0 1 56.5,83.7" fill="none" stroke="#a83f2b" stroke-width="2.7"></path><path d="M56.5,83.7 A23.76,23.76 0 0 1 56.5,76.3" fill="none" stroke="#2f7a4d" stroke-width="2.7"></path><path d="M56.5,76.3 A23.76,23.76 0 0 1 58.8,69.2" fill="none" stroke="#a83f2b" stroke-width="2.7"></path><path d="M58.8,69.2 A23.76,23.76 0 0 1 63.2,63.2" fill="none" stroke="#2f7a4d" stroke-width="2.7"></path><path d="M63.2,63.2 A23.76,23.76 0 0 1 69.2,58.8" fill="none" stroke="#a83f2b" stroke-width="2.7"></path><path d="M69.2,58.8 A23.76,23.76 0 0 1 76.3,56.5" fill="none" stroke="#2f7a4d" stroke-width="2.7"></path><circle cx="80" cy="80" r="44" fill="url(#vigC5)"></circle><line x1="79.1" y1="74.1" x2="73.1" y2="36.5" stroke="#26282c" stroke-width="1.1"></line><line x1="79.1" y1="74.1" x2="73.1" y2="36.5" stroke="#c7cdd5" stroke-width="0.5"></line><line x1="80.9" y1="74.1" x2="86.9" y2="36.5" stroke="#26282c" stroke-width="1.1"></line><line x1="80.9" y1="74.1" x2="86.9" y2="36.5" stroke="#c7cdd5" stroke-width="0.5"></line><line x1="82.7" y1="74.7" x2="100.0" y2="40.8" stroke="#26282c" stroke-width="1.1"></line><line x1="82.7" y1="74.7" x2="100.0" y2="40.8" stroke="#c7cdd5" stroke-width="0.5"></line><line x1="84.2" y1="75.8" x2="111.1" y2="48.9" stroke="#26282c" stroke-width="1.1"></line><line x1="84.2" y1="75.8" x2="111.1" y2="48.9" stroke="#c7cdd5" stroke-width="0.5"></line><line x1="85.3" y1="77.3" x2="119.2" y2="60.0" stroke="#26282c" stroke-width="1.1"></line><line x1="85.3" y1="77.3" x2="119.2" y2="60.0" stroke="#c7cdd5" stroke-width="0.5"></line><line x1="85.9" y1="79.1" x2="123.5" y2="73.1" stroke="#26282c" stroke-width="1.1"></line><line x1="85.9" y1="79.1" x2="123.5" y2="73.1" stroke="#c7cdd5" stroke-width="0.5"></line><line x1="85.9" y1="80.9" x2="123.5" y2="86.9" stroke="#26282c" stroke-width="1.1"></line><line x1="85.9" y1="80.9" x2="123.5" y2="86.9" stroke="#c7cdd5" stroke-width="0.5"></line><line x1="85.3" y1="82.7" x2="119.2" y2="100.0" stroke="#26282c" stroke-width="1.1"></line><line x1="85.3" y1="82.7" x2="119.2" y2="100.0" stroke="#c7cdd5" stroke-width="0.5"></line><line x1="84.2" y1="84.2" x2="111.1" y2="111.1" stroke="#26282c" stroke-width="1.1"></line><line x1="84.2" y1="84.2" x2="111.1" y2="111.1" stroke="#c7cdd5" stroke-width="0.5"></line><line x1="82.7" y1="85.3" x2="100.0" y2="119.2" stroke="#26282c" stroke-width="1.1"></line><line x1="82.7" y1="85.3" x2="100.0" y2="119.2" stroke="#c7cdd5" stroke-width="0.5"></line><line x1="80.9" y1="85.9" x2="86.9" y2="123.5" stroke="#26282c" stroke-width="1.1"></line><line x1="80.9" y1="85.9" x2="86.9" y2="123.5" stroke="#c7cdd5" stroke-width="0.5"></line><line x1="79.1" y1="85.9" x2="73.1" y2="123.5" stroke="#26282c" stroke-width="1.1"></line><line x1="79.1" y1="85.9" x2="73.1" y2="123.5" stroke="#c7cdd5" stroke-width="0.5"></line><line x1="77.3" y1="85.3" x2="60.0" y2="119.2" stroke="#26282c" stroke-width="1.1"></line><line x1="77.3" y1="85.3" x2="60.0" y2="119.2" stroke="#c7cdd5" stroke-width="0.5"></line><line x1="75.8" y1="84.2" x2="48.9" y2="111.1" stroke="#26282c" stroke-width="1.1"></line><line x1="75.8" y1="84.2" x2="48.9" y2="111.1" stroke="#c7cdd5" stroke-width="0.5"></line><line x1="74.7" y1="82.7" x2="40.8" y2="100.0" stroke="#26282c" stroke-width="1.1"></line><line x1="74.7" y1="82.7" x2="40.8" y2="100.0" stroke="#c7cdd5" stroke-width="0.5"></line><line x1="74.1" y1="80.9" x2="36.5" y2="86.9" stroke="#26282c" stroke-width="1.1"></line><line x1="74.1" y1="80.9" x2="36.5" y2="86.9" stroke="#c7cdd5" stroke-width="0.5"></line><line x1="74.1" y1="79.1" x2="36.5" y2="73.1" stroke="#26282c" stroke-width="1.1"></line><line x1="74.1" y1="79.1" x2="36.5" y2="73.1" stroke="#c7cdd5" stroke-width="0.5"></line><line x1="74.7" y1="77.3" x2="40.8" y2="60.0" stroke="#26282c" stroke-width="1.1"></line><line x1="74.7" y1="77.3" x2="40.8" y2="60.0" stroke="#c7cdd5" stroke-width="0.5"></line><line x1="75.8" y1="75.8" x2="48.9" y2="48.9" stroke="#26282c" stroke-width="1.1"></line><line x1="75.8" y1="75.8" x2="48.9" y2="48.9" stroke="#c7cdd5" stroke-width="0.5"></line><line x1="77.3" y1="74.7" x2="60.0" y2="40.8" stroke="#26282c" stroke-width="1.1"></line><line x1="77.3" y1="74.7" x2="60.0" y2="40.8" stroke="#c7cdd5" stroke-width="0.5"></line><circle cx="80" cy="80" r="44.00" fill="none" stroke="#26282c" stroke-width="1.10"></circle><circle cx="80" cy="80" r="44.00" fill="none" stroke="#c7cdd5" stroke-width="0.60"></circle><circle cx="80" cy="80" r="41.15" fill="none" stroke="#26282c" stroke-width="1.00"></circle><circle cx="80" cy="80" r="41.15" fill="none" stroke="#c7cdd5" stroke-width="0.50"></circle><circle cx="80" cy="80" r="43.85" fill="none" stroke="#26282c" stroke-width="1.00"></circle><circle cx="80" cy="80" r="43.85" fill="none" stroke="#c7cdd5" stroke-width="0.50"></circle><circle cx="80" cy="80" r="22.41" fill="none" stroke="#26282c" stroke-width="1.00"></circle><circle cx="80" cy="80" r="22.41" fill="none" stroke="#c7cdd5" stroke-width="0.50"></circle><circle cx="80" cy="80" r="25.11" fill="none" stroke="#26282c" stroke-width="1.00"></circle><circle cx="80" cy="80" r="25.11" fill="none" stroke="#c7cdd5" stroke-width="0.50"></circle><circle cx="80" cy="80" r="5.9" fill="#2f7a4d"></circle><circle cx="80" cy="80" r="2.6" fill="#a83f2b"></circle><circle cx="80" cy="80" r="5.94" fill="none" stroke="#26282c" stroke-width="1.05"></circle><circle cx="80" cy="80" r="5.94" fill="none" stroke="#c7cdd5" stroke-width="0.55"></circle><circle cx="80" cy="80" r="2.64" fill="none" stroke="#26282c" stroke-width="1.00"></circle><circle cx="80" cy="80" r="2.64" fill="none" stroke="#c7cdd5" stroke-width="0.50"></circle><circle cx="80" cy="80" r="45.7" fill="none" stroke="url(#Cg5)" stroke-width="3.4"></circle></svg>